<?xml version="1.0" encoding="utf-8"?>
<!-- Generator: Adobe Illustrator 22.0.0, SVG Export Plug-In . SVG Version: 6.00 Build 0)  -->
<svg version="1.1" id="Capa_1" xmlns="http://www.w3.org/2000/svg" xmlns:xlink="http://www.w3.org/1999/xlink" x="0px" y="0px"
	 viewBox="0 0 549 155.1" style="enable-background:new 0 0 549 155.1;" xml:space="preserve">
<title>Recurso 2</title>
<g id="Capa_2_1_">
	<g id="Capa_1-2">
		<path d="M2.2,115.9H9c0.3,0,0.7-0.1,0.8-0.9V9.8h45.8c0.4,0,0.8-0.3,0.8-0.7V2.6C56.4,2,55.8,2,55.6,2H1.4v113.1
			c0,0.4,0.3,0.7,0.6,0.8C2.1,115.9,2.2,115.9,2.2,115.9z"/>
		<path d="M521.9,141.6H439c-0.4,0-0.8,0.3-0.8,0.8v6.2c0,0.4,0.2,0.7,0.6,0.8c0,0,0.1,0,0.1,0h83c0.4,0,0.7-0.3,0.8-0.7
			c0,0,0-0.1,0-0.1v-6.2C522.8,142.1,522.6,141.7,521.9,141.6z"/>
		<path d="M229.1,2h-57.4v113.9h57.6c0.3,0,0.6-0.2,0.6-0.5c0,0,0-0.1,0-0.1v-6.6c0-0.6-0.6-0.6-0.8-0.6H180V9.8h49.3
			c0.1,0,0.6,0,0.6-0.6V2.6C229.9,2,229.3,2,229.1,2z"/>
		<path d="M301.8,62l-30.1-15.8c-6.4-3.4-9.5-9.2-9.5-18c0-9.2,5.8-19,22-19c13.3,0,21.4,7.1,22.8,19.9c0.1,0.4,0.7,0.6,1.2,0.4
			l7-1.8c0.7-0.1,1.2-0.8,1-1.6c0-0.1,0-0.1,0-0.2c-1.8-11.9-8.6-26-31-26c-8.8,0-16.7,2.7-22.2,7.6c-6,4.9-9.1,11.8-9.1,20.1
			c0,7.9,1.6,19.3,15.7,26.5l25.3,12.9c8.9,4.7,13.2,11.1,13.2,19.6c0,10.8-7.5,22.5-23.8,22.5c-21.1,0-23.3-16.6-23.3-23.7
			c0-0.7-0.4-0.8-0.6-0.8h-4.6h-0.2h-1.9c0,0,0,0-0.1,0l-0.2,0.1c-0.7,0.1-0.7,0.5-0.7,0.8c0,14.5,8.3,31.5,31.7,31.5
			c5,0.1,9.9-0.8,14.6-2.7c11.9-4,18.7-13.8,18.7-26.9c0-3.8-1-7.4-2.8-10.7C312.4,70.4,307.8,65.1,301.8,62z"/>
		<path d="M486.5,108h-39.2V2.8c0-0.4-0.2-0.7-0.6-0.8c-0.1,0-0.1,0-0.2,0h-6.9c-0.4,0-0.6,0.3-0.6,0.7c0,0,0,0.1,0,0.1v113.1h47.5
			c0.4,0,0.7-0.2,0.8-0.6c0-0.1,0-0.1,0-0.2v-6.4C487.2,108,486.6,108,486.5,108z"/>
		<path d="M195.5,63.1c3.5,0,5.2-1.6,5.2-5.2s-1.6-5.2-5.2-5.2s-5.2,1.6-5.2,5.2S191.9,63.1,195.5,63.1z"/>
		<path d="M27.4,52.7c-3.5,0-5.2,1.6-5.2,5.2s1.6,5.2,5.2,5.2s5.2-1.6,5.2-5.2S30.9,52.7,27.4,52.7z"/>
		<path d="M9.8,139.1c2,0,3.8,0.9,5,2.5l0.4,0.5l2.8-2.1l-0.4-0.5c-0.9-1.2-2.1-2.2-3.4-2.9C9.3,134.2,3.5,136.2,1,141
			c-0.7,1.4-1,2.9-1,4.4c0,1.3,0.3,2.6,0.8,3.8c0.5,1.2,1.2,2.2,2.1,3.1c0.9,0.9,1.9,1.6,3.1,2.1c1.2,0.5,2.5,0.8,3.8,0.8
			c3.1,0,6-1.4,7.8-3.9l0.4-0.5l-2.8-2l-0.4,0.5c-2.1,2.8-6,3.4-8.8,1.3c-2.8-2.1-3.4-6-1.3-8.8C5.9,140.1,7.8,139.1,9.8,139.1
			L9.8,139.1z"/>
		<path d="M63.1,135.6c-5.4,0-9.7,4.4-9.7,9.8c0,5.4,4.4,9.7,9.8,9.7c5.4,0,9.7-4.4,9.7-9.7C72.9,140,68.5,135.6,63.1,135.6
			C63.1,135.6,63.1,135.6,63.1,135.6z M63.1,151.6c-3.5,0-6.3-2.8-6.3-6.2c0-3.5,2.8-6.3,6.2-6.3c3.5,0,6.3,2.8,6.3,6.2c0,0,0,0,0,0
			C69.3,148.8,66.5,151.6,63.1,151.6C63.1,151.6,63.1,151.6,63.1,151.6L63.1,151.6z"/>
		<path d="M119.9,144.8c-1.1-0.6-2.3-0.9-3.6-1.1l-0.6-0.1c-0.9-0.1-1.7-0.4-2.5-0.9c-0.5-0.3-0.7-0.8-0.7-1.3
			c0.1-0.7,0.5-1.3,1.2-1.6c0.5-0.2,1.1-0.3,1.6-0.3c1.5,0.1,3,0.7,4.1,1.7l0.5,0.4l2.2-2.7l-0.5-0.4c-1.4-1.2-3.1-2-4.9-2.4
			c-0.5-0.1-0.9-0.1-1.4-0.1c-1.1,0-2.1,0.2-3.1,0.7c-0.9,0.4-1.7,1-2.3,1.8c-0.6,0.9-0.9,1.9-0.9,2.9c0,0.9,0.2,1.8,0.7,2.5
			c0.5,0.8,1.1,1.4,1.9,1.9c1.4,0.6,2.8,1,4.2,1.3c0.9,0.1,1.7,0.4,2.4,0.8c0.5,0.3,0.9,0.8,0.9,1.4c0,0.9-0.5,1.6-1.4,1.9
			c-0.6,0.3-1.2,0.4-1.8,0.4c-0.4,0-0.8,0-1.2-0.1l0,0c-1.4-0.3-2.8-1-3.9-2l-0.5-0.4l-2.3,2.6l0.5,0.4c1.6,1.4,3.4,2.3,5.5,2.8
			c0.6,0.1,1.3,0.2,1.9,0.2c1.1,0,2.2-0.2,3.2-0.7c1-0.4,1.8-1.1,2.4-1.9c0.6-0.9,1-2,0.9-3.1c0-0.9-0.2-1.8-0.7-2.6
			C121.5,145.9,120.8,145.2,119.9,144.8z"/>
		<polygon points="166.3,143.1 161.3,136.2 158,136.2 158,154.9 161.5,154.9 161.5,142.4 166.3,149 171.2,142.4 171.2,154.9 
			174.7,154.9 174.7,136.2 171.4,136.2 		"/>
		<polygon points="210,154.9 222.1,154.9 222.1,151.4 213.5,151.4 213.5,145.8 221.2,145.8 221.2,142.3 213.5,142.3 213.5,139.6 
			222.3,139.6 222.3,136.2 210,136.2 		"/>
		<polygon points="257.6,139.6 262.2,139.6 262.2,154.9 265.7,154.9 265.7,139.6 270.3,139.6 270.3,136.2 257.6,136.2 		"/>
		<rect x="305.6" y="136.2" width="3.5" height="18.7"/>
		<path d="M354.2,139.1c2,0,3.8,0.9,5,2.5l0.4,0.5l2.8-2.1l-0.4-0.5c-0.9-1.2-2.1-2.2-3.4-2.9c-4.8-2.4-10.7-0.5-13.1,4.3
			c-0.7,1.4-1.1,2.9-1.1,4.4c0,1.3,0.3,2.6,0.8,3.8c0.5,1.2,1.2,2.2,2.1,3.1c1.8,1.8,4.3,2.9,6.9,2.9c3.1,0,6-1.4,7.8-3.9l0.4-0.5
			l-2.8-2l-0.4,0.5c-2.1,2.8-6,3.4-8.8,1.3c-2.8-2.1-3.4-6-1.3-8.8C350.3,140.1,352.2,139.1,354.2,139.1L354.2,139.1z"/>
		<path d="M409.5,144.8c-1.1-0.6-2.3-0.9-3.6-1.1l-0.6-0.1c-0.9-0.1-1.7-0.4-2.5-0.9c-0.5-0.3-0.7-0.8-0.7-1.3
			c0.1-0.7,0.5-1.3,1.2-1.6c0.5-0.2,1.1-0.3,1.6-0.3c1.5,0.1,3,0.7,4.1,1.7l0.5,0.4l2.2-2.7l-0.5-0.4c-1.4-1.2-3.1-2-4.9-2.4
			c-0.5,0-0.9-0.1-1.4-0.1c-1.1,0-2.1,0.2-3.1,0.7c-0.9,0.4-1.7,1-2.3,1.8c-0.6,0.9-0.9,1.9-0.9,2.9c0,0.9,0.2,1.8,0.7,2.5
			c0.5,0.8,1.1,1.4,1.9,1.9c1.4,0.6,2.8,1,4.2,1.3c0.9,0.1,1.7,0.4,2.4,0.8c0.5,0.3,0.9,0.8,0.9,1.4c0,0.9-0.5,1.6-1.4,1.9
			c-0.6,0.3-1.2,0.4-1.8,0.4c-0.4,0-0.8,0-1.2-0.1l0,0c-1.4-0.3-2.8-1-3.9-2l-0.5-0.4l-2.3,2.6l0.5,0.4c1.6,1.4,3.4,2.3,5.5,2.8
			c0.6,0.1,1.3,0.2,1.9,0.2c1.1,0,2.2-0.2,3.2-0.7c1-0.4,1.8-1.1,2.4-1.9c0.6-0.9,1-2,1-3.1c0-0.9-0.2-1.8-0.7-2.6
			C411.1,145.9,410.3,145.2,409.5,144.8z"/>
		<path d="M346.5,115.8h6.9c0.3,0,0.7-0.2,0.7-0.9V60.7h46.9v54.2c0,0.5,0.3,0.8,0.8,0.9c0,0,0.1,0,0.1,0h6.9c0.3,0,0.7-0.2,0.7-0.9
			V2.8c0-0.5-0.3-0.8-0.8-0.9c0,0-0.1,0-0.1,0h-6.9c-0.3,0-0.7,0.2-0.7,0.9v49.9h-46.9V2.8c0-0.5-0.3-0.8-0.8-0.8c0,0-0.1,0-0.1,0
			h-6.9c-0.3,0-0.7,0.2-0.7,0.9v112c0,0.5,0.3,0.8,0.8,0.9C346.4,115.8,346.4,115.8,346.5,115.8z"/>
		<path d="M548.4,2h-7.1c-0.4,0-1,0-1.4,1.3l-21.6,60.8h-1.8l-0.1-0.2L492.2,3.3c-0.4-1.3-1-1.3-1.4-1.3h-7.1
			c-0.2,0-0.4,0.1-0.6,0.2c-0.1,0.2-0.1,0.5,0.1,0.9l29.7,73.1v38.7c0,0.4,0.2,0.7,0.6,0.8c0,0,0.1,0,0.1,0h8.2
			c0.3,0,0.6-0.1,0.6-0.8V77l26.5-73.9c0.2-0.4,0.2-0.8,0.1-1C548.8,2,548.6,2,548.4,2z"/>
		<path d="M141.3,115.7l-25.6-48.9l1-0.3c14-3.8,20.8-13.9,20.8-30.7v-3.5c0-13.8-6.2-30.3-36-30.3H79.2v113.1
			c0,0.4,0.2,0.7,0.6,0.8c0,0,0.1,0,0.1,0h6.9c0.6,0,0.6-0.6,0.6-0.8V67.8h19.9l24.1,47.9c0.1,0.2,0.3,0.5,0.6,0.5h8.8
			C141.4,116.2,141.3,115.9,141.3,115.7z M103,60H87.5V9.8h14.9c18,0,26.8,7.4,26.8,22.5v3.5C129.2,57,116.6,60,103,60z"/>
	</g>
</g>
</svg>
